<?xml version="1.0" encoding="UTF-8" standalone="no"?>
<!DOCTYPE svg PUBLIC "-//W3C//DTD SVG 1.1//EN" "http://www.w3.org/Graphics/SVG/1.1/DTD/svg11.dtd">
<svg version="1.1" xmlns="http://www.w3.org/2000/svg" xmlns:xlink="http://www.w3.org/1999/xlink" preserveAspectRatio="xMidYMid meet" viewBox="0 0 640 320" width="640" height="320"><defs><path d="M387.02 320C403.2 275.54 395.62 243.98 364.29 225.32C332.96 206.65 309.73 156.4 294.59 74.57C233.54 173.29 219.69 255.1 253.02 320" id="bbQGAnhHz"></path><path d="M112.12 320C69.68 275.05 64.12 243.24 95.45 224.57C142.45 196.57 81.98 20.12 80.98 15.48C251.98 88.84 296.12 222.64 246.12 320" id="c21DMtnoLY"></path><path d="M165.12 320C139.45 281.89 134.79 259.72 151.12 253.48C190.62 203.12 153.12 131.27 156.12 130.63C218.79 178.87 238.45 241.99 215.12 320" id="h2xX530CE9"></path><path d="M159.61 320C190.94 275.05 190.94 243.24 159.61 224.57C112.61 196.57 163.99 92.85 164.99 88.21C-6.01 161.56 -26.48 222.64 23.52 320" id="e15svYZImS"></path><path d="M334.02 320C350.35 287.95 350.35 268.81 334.02 262.57C294.52 212.21 296.9 195.81 288.47 185.92C262.66 226.81 261.17 271.5 284.02 320" id="blnqcmVCD"></path><path d="M106.26 320C131.93 287.95 136.59 268.81 120.26 262.57C80.76 212.21 118.26 175.21 115.26 174.57C52.59 222.81 32.93 271.29 56.26 320" id="a9UB6nAaT"></path><path d="M500.96 320C526.23 267.46 523.2 231.86 491.87 213.19C444.87 185.19 487.87 109.99 482.78 104.87C398.9 130.06 316.96 222.64 366.96 320" id="kKMC16Bwy"></path><path d="M449.27 320C472.7 296.66 476.24 281.87 459.91 275.63C420.41 225.27 443.22 202.47 434.8 192.59C408.98 233.47 397.14 275.94 399.27 320" id="e1elruMNCX"></path><path d="M497.63 320C471.58 231.12 569.66 171.25 548.99 64.5C537.35 53.57 614.44 123.53 628.85 187.41C643.26 251.29 645.06 286.47 626.77 322.08" id="cNZc5f2Sf"></path><path d="M548.36 320C556.56 284.21 488.17 247.63 581.16 176.82C566.76 266.71 616.98 239.76 598.36 320" id="a2IpLFtMsm"></path></defs><g><g><g><use xlink:href="#bbQGAnhHz" opacity="1" fill="#ff5e2a" fill-opacity="1"></use><g><use xlink:href="#bbQGAnhHz" opacity="1" fill-opacity="0" stroke="#000000" stroke-width="1" stroke-opacity="0"></use></g></g><g><use xlink:href="#c21DMtnoLY" opacity="1" fill="#c60500" fill-opacity="1"></use><g><use xlink:href="#c21DMtnoLY" opacity="1" fill-opacity="0" stroke="#000000" stroke-width="1" stroke-opacity="0"></use></g></g><g><use xlink:href="#h2xX530CE9" opacity="1" fill="#ffb200" fill-opacity="1"></use><g><use xlink:href="#h2xX530CE9" opacity="1" fill-opacity="0" stroke="#ffa800" stroke-width="1" stroke-opacity="0"></use></g></g><g><use xlink:href="#e15svYZImS" opacity="1" fill="#ff7d54" fill-opacity="1"></use><g><use xlink:href="#e15svYZImS" opacity="1" fill-opacity="0" stroke="#000000" stroke-width="1" stroke-opacity="0"></use></g></g><g><use xlink:href="#blnqcmVCD" opacity="1" fill="#ffc300" fill-opacity="1"></use><g><use xlink:href="#blnqcmVCD" opacity="1" fill-opacity="0" stroke="#ffa800" stroke-width="1" stroke-opacity="0"></use></g></g><g><use xlink:href="#a9UB6nAaT" opacity="1" fill="#ffde00" fill-opacity="1"></use><g><use xlink:href="#a9UB6nAaT" opacity="1" fill-opacity="0" stroke="#ffa800" stroke-width="1" stroke-opacity="0"></use></g></g><g><use xlink:href="#kKMC16Bwy" opacity="1" fill="#ffa97d" fill-opacity="1"></use><g><use xlink:href="#kKMC16Bwy" opacity="1" fill-opacity="0" stroke="#000000" stroke-width="1" stroke-opacity="0"></use></g></g><g><use xlink:href="#e1elruMNCX" opacity="1" fill="#ffd500" fill-opacity="1"></use><g><use xlink:href="#e1elruMNCX" opacity="1" fill-opacity="0" stroke="#ffa800" stroke-width="1" stroke-opacity="0"></use></g></g><g><use xlink:href="#cNZc5f2Sf" opacity="1" fill="#ff5838" fill-opacity="1"></use><g><use xlink:href="#cNZc5f2Sf" opacity="1" fill-opacity="0" stroke="#000000" stroke-width="1" stroke-opacity="0"></use></g></g><g><use xlink:href="#a2IpLFtMsm" opacity="1" fill="#ffc400" fill-opacity="1"></use><g><use xlink:href="#a2IpLFtMsm" opacity="1" fill-opacity="0" stroke="#ffa800" stroke-width="1" stroke-opacity="0"></use></g></g></g></g></svg>